<?xml version="1.0" encoding="UTF-8"?>
<svg width="144px" height="162px" viewBox="0 0 144 162" version="1.1" xmlns="http://www.w3.org/2000/svg" xmlns:xlink="http://www.w3.org/1999/xlink">
    <!-- Generator: Sketch 64 (93537) - https://sketch.com -->
    <title>head</title>
    <desc>Created with Sketch.</desc>
    <g id="Page-1" stroke="none" stroke-width="1" fill="none" fill-rule="evenodd">
        <g id="head" fill-rule="nonzero">
            <rect id="Rectangle" fill="#EFCAA0" x="15" y="31" width="110" height="76"></rect>
            <rect id="Rectangle" fill="#000000" x="43" y="63" width="11" height="22"></rect>
            <rect id="Rectangle" fill="#000000" x="86" y="63" width="11" height="22"></rect>
            <rect id="Rectangle" fill="#120F0C" x="65" y="0" width="79" height="47"></rect>
            <rect id="Rectangle" fill="#161515" x="1" y="7" width="59" height="36"></rect>
            <rect id="Rectangle" fill="#EFCAA0" x="125" y="74" width="15" height="22"></rect>
            <rect id="Rectangle" fill="#1D1A17" x="118" y="31" width="13" height="51"></rect>
            <path d="M125,96 C125,99.7957507 125.749543,103.097217 125,107 C119.825473,133.943157 96.5536393,162 70,162 C43.1134352,162 19.8069475,134.263223 15,107 C14.3718462,103.437345 15,99.4672057 15,96 C15,96 39.6,107 70,107 C100.4,107 125,96 125,96 Z" id="Path" fill="#292521"></path>
            <rect id="Rectangle" fill="#EFCAA0" x="54" y="118" width="32" height="11"></rect>
            <rect id="Rectangle" fill="#EFCAA0" x="0" y="74" width="19" height="22"></rect>
            <rect id="Rectangle" fill="#211E1B" x="9" y="36" width="14" height="46"></rect>
        </g>
    </g>
</svg>